<?xml version="1.0" standalone="no"?>
<!DOCTYPE svg PUBLIC "-//W3C//DTD SVG 20010904//EN"
 "http://www.w3.org/TR/2001/REC-SVG-20010904/DTD/svg10.dtd">
<svg version="1.0" xmlns="http://www.w3.org/2000/svg"
 width="700.000000pt" height="700.000000pt" viewBox="0 0 700.000000 700.000000"
 preserveAspectRatio="xMidYMid meet">
<metadata>
Created by potrace 1.11, written by Peter Selinger 2001-2013
</metadata>
<g transform="translate(0.000000,700.000000) scale(0.100000,-0.100000)"
fill="#000000" stroke="none">
<path d="M1640 6060 c-217 -28 -391 -187 -435 -397 -22 -102 -22 -4224 0
-4326 37 -177 172 -323 350 -380 l70 -22 2045 0 c1955 0 2047 1 2073 18 16 10
37 32 47 50 20 32 20 68 17 2509 l-2 2477 -29 30 c-17 17 -46 36 -65 41 -42
11 -3983 12 -4071 0z m3910 -2175 l0 -1925 -1942 0 c-2083 0 -2018 1 -2117
-49 l-41 -21 0 1864 0 1864 28 52 c30 59 81 105 138 125 33 12 357 14 1987 15
l1947 0 0 -1925z m0 -2440 l0 -255 -1942 0 c-1308 0 -1955 3 -1980 10 -57 16
-119 69 -150 129 -36 69 -39 158 -7 226 25 53 94 117 141 132 23 8 649 11
1986 12 l1952 1 0 -255z"/>
<path d="M3322 5271 c-108 -31 -190 -80 -277 -164 l-80 -77 -75 6 c-273 21
-533 -153 -636 -426 -25 -69 -28 -87 -28 -210 0 -125 2 -141 28 -210 38 -99
94 -185 161 -249 l54 -52 3 -532 c3 -592 0 -564 71 -607 31 -19 58 -20 957
-20 899 0 926 1 957 20 71 43 68 15 71 605 l3 531 67 70 c69 71 123 161 158
264 15 43 19 83 18 185 0 117 -3 137 -28 205 -103 272 -364 447 -636 426 l-75
-6 -80 78 c-88 85 -182 138 -291 166 -85 22 -260 20 -342 -3z m333 -262 c77
-30 180 -126 224 -208 42 -79 60 -140 67 -231 8 -89 24 -124 67 -150 60 -37
140 -16 172 44 15 28 17 48 12 127 -3 52 -13 116 -21 143 l-15 49 47 -7 c68
-9 163 -59 212 -112 23 -25 56 -75 73 -112 26 -57 31 -78 31 -147 0 -137 -48
-231 -168 -324 -32 -25 -64 -57 -72 -71 -10 -19 -13 -82 -14 -267 l0 -243
-770 0 -770 0 0 243 c-1 185 -4 248 -14 267 -8 14 -40 46 -72 71 -120 93 -168
187 -168 324 0 69 5 90 31 147 17 37 50 87 73 112 49 53 144 103 212 112 l47
7 -15 -49 c-8 -27 -18 -91 -21 -143 -5 -79 -3 -99 12 -127 32 -60 112 -81 172
-44 43 26 59 61 67 150 11 134 56 239 139 328 68 71 95 90 175 119 86 31 196
28 287 -8z m615 -1894 l0 -125 -770 0 -770 0 0 125 0 125 770 0 770 0 0 -125z"/>
</g>
</svg>
